<svg style="aspect-ratio: 1.0;" viewBox="0 0 16 16" fill="none" xmlns="http://www.w3.org/2000/svg">
<path d="M6.33331 10L6.33331 8" stroke="white" stroke-linecap="round"/>
<path d="M9.66669 10L9.66669 8" stroke="white" stroke-linecap="round"/>
<path d="M2 4.66669H14V4.66669C13.6904 4.66669 13.5356 4.66669 13.4056 4.6838C12.5081 4.80195 11.8019 5.50817 11.6838 6.40563C11.6667 6.5356 11.6667 6.69041 11.6667 7.00002V9.66669C11.6667 11.2304 11.6667 12.0123 11.2534 12.5509C11.147 12.6895 11.0229 12.8137 10.8842 12.9201C10.3456 13.3334 9.56372 13.3334 8 13.3334V13.3334C6.43628 13.3334 5.65443 13.3334 5.11581 12.9201C4.97715 12.8137 4.85303 12.6895 4.74663 12.5509C4.33333 12.0123 4.33333 11.2304 4.33333 9.66669V7.00002C4.33333 6.69041 4.33333 6.5356 4.31622 6.40563C4.19807 5.50817 3.49185 4.80195 2.59439 4.6838C2.46442 4.66669 2.30961 4.66669 2 4.66669V4.66669Z" stroke="white" stroke-linecap="round"/>
<path d="M6.33335 2.66683C6.33335 2.66683 6.66669 2 8.00002 2C9.33335 2 9.66669 2.66667 9.66669 2.66667" stroke="white" stroke-linecap="round"/>
</svg>
