<svg style="aspect-ratio: 1.0;" viewBox="0 0 8 8" fill="none" xmlns="http://www.w3.org/2000/svg">
<path d="M2.33331 2.3773V2.3773C2.33331 1.47444 3.13297 0.780894 4.02676 0.908578L4.52598 0.979895C5.94555 1.18269 6.99998 2.39846 6.99998 3.83244V4.16754C6.99998 5.60152 5.94555 6.81729 4.52598 7.02008L3.96146 7.10073C3.10214 7.22349 2.33331 6.55669 2.33331 5.68865V5.68865" stroke="#FF4E4E"/>
<path d="M5.33331 4.00001L5.72375 3.68766L5.97363 4.00001L5.72375 4.31236L5.33331 4.00001ZM1.33331 4.50001C1.05717 4.50001 0.833313 4.27615 0.833313 4.00001C0.833313 3.72387 1.05717 3.50001 1.33331 3.50001V4.50001ZM4.39041 2.021L5.72375 3.68766L4.94288 4.31236L3.60955 2.64569L4.39041 2.021ZM5.72375 4.31236L4.39041 5.97902L3.60955 5.35433L4.94288 3.68766L5.72375 4.31236ZM5.33331 4.50001H1.33331V3.50001H5.33331V4.50001Z" fill="#FF4E4E"/>
</svg>
