<svg style="aspect-ratio: 1.0;" viewBox="0 0 16 16" fill="none" xmlns="http://www.w3.org/2000/svg">
<path d="M4.66669 4.75463V4.75463C4.66669 3.731 4.66669 3.21918 4.83578 2.83452C5.07698 2.28582 5.55156 1.87421 6.12887 1.71303C6.53357 1.60004 7.04024 1.67242 8.05359 1.81719L9.05203 1.95982C11.3095 2.28232 12.4382 2.44356 13.1519 3.17824C13.2306 3.25923 13.3046 3.3446 13.3737 3.43394C14 4.24432 14 5.38452 14 7.6649V8.33512C14 10.6155 14 11.7557 13.3737 12.5661C13.3046 12.6554 13.2306 12.7408 13.1519 12.8218C12.4382 13.5565 11.3095 13.7177 9.05203 14.0402L7.92298 14.2015C7.0303 14.329 6.58396 14.3928 6.22385 14.311C5.57204 14.163 5.03725 13.6992 4.79856 13.0749C4.66669 12.7299 4.66669 12.2791 4.66669 11.3773V11.3773" stroke="white"/>
<path d="M10.6667 7.99999L11.0571 7.68764L11.307 7.99999L11.0571 8.31234L10.6667 7.99999ZM2.66669 8.49999C2.39054 8.49999 2.16669 8.27613 2.16669 7.99999C2.16669 7.72385 2.39054 7.49999 2.66669 7.49999V8.49999ZM8.39045 4.35431L11.0571 7.68764L10.2763 8.31234L7.60959 4.979L8.39045 4.35431ZM11.0571 8.31234L8.39045 11.6457L7.60959 11.021L10.2763 7.68764L11.0571 8.31234ZM10.6667 8.49999H2.66669V7.49999H10.6667V8.49999Z" fill="white"/>
</svg>
