<svg style="aspect-ratio: 1.0;" viewBox="0 0 24 24" fill="none" xmlns="http://www.w3.org/2000/svg">
<path fill-rule="evenodd" clip-rule="evenodd" d="M12 2.75C9.37665 2.75 7.25 4.87665 7.25 7.5C7.25 10.1234 9.37665 12.25 12 12.25C14.6234 12.25 16.75 10.1234 16.75 7.5C16.75 4.87665 14.6234 2.75 12 2.75ZM5.75 7.5C5.75 4.04822 8.54822 1.25 12 1.25C15.4518 1.25 18.25 4.04822 18.25 7.5C18.25 10.9518 15.4518 13.75 12 13.75C8.54822 13.75 5.75 10.9518 5.75 7.5Z" fill="#D9D9D9"/>
<path fill-rule="evenodd" clip-rule="evenodd" d="M11.9999 13.75C7.53453 13.75 3.87981 16.5572 2.97057 20.2009C2.85319 20.6713 3.24224 21.25 3.99994 21.25H11.9999C12.4142 21.25 12.7499 21.5858 12.7499 22C12.7499 22.4142 12.4142 22.75 11.9999 22.75H3.99994C2.5485 22.75 1.09772 21.5108 1.5152 19.8378C2.61108 15.4461 6.93189 12.25 11.9999 12.25C17.068 12.25 21.3888 15.4461 22.4847 19.8378C22.9022 21.5108 21.4514 22.75 19.9999 22.75H16.9999C16.5857 22.75 16.2499 22.4142 16.2499 22C16.2499 21.5858 16.5857 21.25 16.9999 21.25H19.9999C20.7576 21.25 21.1467 20.6713 21.0293 20.2009C20.1201 16.5572 16.4654 13.75 11.9999 13.75Z" fill="#D9D9D9"/>
</svg>
